<svg width="313.5799926757812px" height="124.439990234375px" xmlns="http://www.w3.org/2000/svg" viewBox="93.21000366210939 12.780004882812499 313.5799926757812 124.439990234375" style="background: rgba(0, 0, 0, 0) none repeat scroll 0% 0%;" preserveAspectRatio="xMidYMid"><filter id="editing-goldstamp"><feFlood flood-color="#797549" result="flood"></feFlood><feMorphology operator="dilate" radius="2" in="SourceGraphic" result="outline"></feMorphology><feComposite operator="in" in="flood" in2="outline" result="outline2"></feComposite><feGaussianBlur stdDeviation="4" in="SourceAlpha" result="blur"></feGaussianBlur><feSpecularLighting surfaceScale="2" specularConstant="0.7" specularExponent="10" lighting-color="#white" in="blur" result="specular"><fePointLight x="200" y="-1000" z="300"></fePointLight></feSpecularLighting><feComposite operator="in" in="specular" in2="SourceGraphic" result="specular2"></feComposite><feComposite in="SourceGraphic" in2="specular2" operator="arithmetic" k1="3" k2="2" k3="1" k4="0" result="specular3"></feComposite><feMerge><feMergeNode in="outline2"></feMergeNode><feMergeNode in="specular3"></feMergeNode></feMerge></filter><g filter="url(#editing-goldstamp)"><g transform="translate(143.44220733642578, 99)"><path d="M0.45-0.32L0.45-0.32L8.51-42.24L8.51-42.24Q16.06-42.88 20.93-42.88L20.93-42.88L20.93-42.88Q25.79-42.88 28.93-42.46L28.93-42.46L28.93-42.46Q32.06-42.05 34.18-40.96L34.18-40.96L34.18-40.96Q38.40-38.91 38.40-33.28L38.40-33.28L38.40-33.28Q38.40-30.02 35.58-27.26L35.58-27.26L35.58-27.26Q32.96-24.77 30.08-24.19L30.08-24.19L30.08-24.19Q33.15-23.68 35.33-21.38L35.33-21.38L35.33-21.38Q37.63-18.94 37.63-15.17L37.63-15.17L37.63-15.17Q37.63-7.87 32.19-3.62L32.19-3.62L32.19-3.62Q26.75 0.64 16.06 0.64L16.06 0.64L16.06 0.64Q8.70 0.64 0.45-0.32ZM17.86-20.61L14.66-4.03L14.66-4.03Q15.23-3.97 15.36-3.97L15.36-3.97L15.94-3.97L15.94-3.97Q21.18-3.97 23.42-7.42L23.42-7.42L23.42-7.42Q25.09-10.11 25.09-15.04L25.09-15.04L25.09-15.04Q25.09-17.66 23.39-19.07L23.39-19.07L23.39-19.07Q21.70-20.48 17.86-20.61L17.86-20.61ZM27.58-33.22L27.58-33.22L27.58-33.22Q27.58-38.53 22.46-38.53L22.46-38.53L21.89-38.53L21.89-38.53Q21.63-38.53 21.25-38.46L21.25-38.46L18.69-24.96L19.33-24.96L19.33-24.96Q27.58-25.15 27.58-33.22ZM69.63 1.28L69.63 1.28L69.63 1.28Q61.44 1.28 60.67-10.37L60.67-10.37L49.66-10.37L49.66-10.37Q48.38-7.42 47.49-4.86L47.49-4.86L45.82 0L36.86 0L57.02-42.24L70.78-42.24L73.47-11.14L73.47-11.14Q74.11-4.42 76.67-2.43L76.67-2.43L76.67-2.43Q74.82 1.28 69.63 1.28ZM55.17-23.17L51.65-15.04L60.48-15.04L59.71-31.49L59.71-33.22L55.17-23.17ZM86.98 0L79.94 0L87.62-42.24L101.38-42.24L111.36-13.18L116.67-42.24L123.78-42.18L115.97 0L101.31 0L92.10-27.97L86.98 0ZM138.43 0L124.80 0L132.10-38.91L132.80-42.24L146.50-42.24L138.43 0ZM164.42-3.78L164.42-3.78L164.42-3.78Q162.69 1.28 156.03 1.28L156.03 1.28L156.03 1.28Q151.10 1.28 147.71-4.61L147.71-4.61L147.71-4.61Q144.26-10.50 143.62-20.10L143.62-20.10L143.62-20.10Q150.66-32.96 155.52-38.27L155.52-38.27L155.52-38.27Q160.19-43.33 165.06-43.33L165.06-43.33L165.06-43.33Q167.68-43.33 169.57-41.92L169.57-41.92L169.57-41.92Q171.46-40.51 171.90-38.27L171.90-38.27L171.90-38.27Q169.73-37.38 168.70-36.67L168.70-36.67L168.70-36.67Q166.14-34.75 162.69-30.46L162.69-30.46L156.86-23.49L156.86-23.49Q155.46-21.82 154.88-21.06L154.88-21.06L154.88-21.06Q155.84-15.68 158.72-10.37L158.72-10.37L158.72-10.37Q161.47-5.31 164.42-3.78ZM185.22-3.52L185.22-3.52L185.22-3.52Q183.23 1.28 176.90 1.28L176.90 1.28L176.90 1.28Q173.63 1.28 171.58-0.96L171.58-0.96L171.58-0.96Q169.86-2.94 169.86-4.93L169.86-4.93L169.86-4.93Q169.86-10.11 172.22-20.22L172.22-20.22L174.59-32.64L187.58-33.92L183.68-13.70L183.68-13.70Q182.59-8.96 182.59-7.30L182.59-7.30L182.59-7.30Q182.59-3.65 185.22-3.52ZM175.74-41.54L175.74-41.54L175.74-41.54Q175.74-44.03 177.82-45.38L177.82-45.38L177.82-45.38Q179.90-46.72 182.91-46.72L182.91-46.72L182.91-46.72Q185.92-46.72 187.74-45.38L187.74-45.38L187.74-45.38Q189.57-44.03 189.57-41.54L189.57-41.54L189.57-41.54Q189.57-39.04 187.55-37.76L187.55-37.76L187.55-37.76Q185.54-36.48 182.53-36.48L182.53-36.48L182.53-36.48Q179.52-36.48 177.63-37.76L177.63-37.76L177.63-37.76Q175.74-39.04 175.74-41.54ZM191.68-6.40L191.68-6.40L191.68-6.40Q191.68-8.13 192.58-12.48L192.58-12.48L195.97-29.76L192.19-29.76L192.45-31.68L192.45-31.68Q200.13-33.98 207.55-39.62L207.55-39.62L210.62-39.62L209.09-32.64L214.08-32.64L213.50-29.76L208.58-29.76L205.31-12.48L205.31-12.48Q204.48-8.51 204.48-7.17L204.48-7.17L204.48-7.17Q204.48-4.10 207.17-3.46L207.17-3.46L207.17-3.46Q206.53-1.28 204.22 0L204.22 0L204.22 0Q201.92 1.28 198.66 1.28L198.66 1.28L198.66 1.28Q195.39 1.28 193.54-0.77L193.54-0.77L193.54-0.77Q191.68-2.82 191.68-6.40Z" fill="#999569"></path></g></g><style>text {
  font-size: 64px;
  font-family: Arial Black;
  dominant-baseline: central;
  text-anchor: middle;
}</style></svg>